<svg height="512" viewBox="0 0 24 24" width="512" xmlns="http://www.w3.org/2000/svg"><g id="Layer_2" data-name="Layer 2"><path d="m18 12a1 1 0 0 1 -.707-1.707l2.29294-2.293-2.29294-2.293a.99989.99989 0 0 1 1.414-1.414l3 3a.99962.99962 0 0 1 0 1.41406l-3 3a.99676.99676 0 0 1 -.707.29294z"/><path d="m20 9h-12a1 1 0 0 1 0-2h12a1 1 0 0 1 0 2z"/><path d="m6 20a.99676.99676 0 0 1 -.707-.293l-3-3a.99962.99962 0 0 1 0-1.41406l3-3a.99989.99989 0 0 1 1.414 1.41406l-2.29294 2.293 2.293 2.293a1 1 0 0 1 -.70706 1.707z"/><path d="m16 17h-12a1 1 0 0 1 0-2h12a1 1 0 0 1 0 2z"/></g></svg>