<svg id="Glyph" height="512" viewBox="0 0 64 64" width="512" xmlns="http://www.w3.org/2000/svg"><path d="m59.59 43.53084-10-7.34a1.01 1.01 0 0 0 -1.59.81v2.67h-25a.99655.99655 0 0 0 -1 1v7.33a1.003 1.003 0 0 0 1 1h25v2.67a1.00335 1.00335 0 0 0 1.59.79995l10-7.32991a1.00122 1.00122 0 0 0 0-1.61004z"/><path d="m20 48.00087v-1h-4v-2.67a1.0032 1.0032 0 0 0 -1.59-.79995l-10 7.33a1.00111 1.00111 0 0 0 0 1.61l10 7.34a1.00647 1.00647 0 0 0 1.04.08.988.988 0 0 0 .55-.89v-2.67h25a.9965.9965 0 0 0 1-1v-4.33h-19a3.00883 3.00883 0 0 1 -3-3.00005z"/><path d="m20.33 32.17085a16.53986 16.53986 0 0 0 23.34 0c10.096-9.98231 3.32383-27.51113-10.82023-28.14994-15.01338-.74003-23.16527 17.50017-12.51977 28.14994zm12.84-16.12a.99586.99586 0 0 1 1.66007-1.09992l2.5 3.74994 2.5-3.75a1.00133 1.00133 0 0 1 1.39-.28.98786.98786 0 0 1 .28 1.38l-2.96 4.45 2.96 4.45a.9878.9878 0 0 1 -.28 1.37995.99856.99856 0 0 1 -1.39-.28l-2.5-3.75-2.5 3.75a.99583.99583 0 0 1 -1.66-1.1l2.96-4.45zm-10.84-.55a1.003 1.003 0 0 1 1-1h6.67a1.0002 1.0002 0 0 1 -.00006 2h-5.66994v3h5.67a1.00011 1.00011 0 0 1 -.00005 2h-5.66995v4a1.00011 1.00011 0 0 1 -2 0z"/></svg>