<svg xmlns="http://www.w3.org/2000/svg" width="449.566" height="441.698" viewBox="0 0 449.566 441.698">
  <g id="chart" transform="translate(0 -0.28)">
    <path id="Path_5428" data-name="Path 5428" d="M80.922,60.69H62.939V15.312a15.032,15.032,0,1,0-30.064,0V60.69H15.032A15.05,15.05,0,0,0,0,75.723V266.367A15.049,15.049,0,0,0,15.032,281.4H32.875v45.378a15.032,15.032,0,1,0,30.064,0V281.4H80.922a15.02,15.02,0,0,0,14.892-15.033V75.723A15.021,15.021,0,0,0,80.922,60.69Z"/>
    <path id="Path_5429" data-name="Path 5429" d="M89.312,66.2H71.329V20.682a14.962,14.962,0,0,0-29.924,0V66.2H23.423A14.93,14.93,0,0,0,8.39,81.092V271.877a14.929,14.929,0,0,0,15.033,14.892H41.4v45.518a14.962,14.962,0,0,0,29.924,0V286.769H89.312A14.81,14.81,0,0,0,104.2,271.877V81.092A14.811,14.811,0,0,0,89.312,66.2Z" transform="translate(109.481 71.9)"/>
    <path id="Path_5430" data-name="Path 5430" d="M97.571,62.55H79.589V17.172a14.962,14.962,0,1,0-29.924,0V62.55H31.682A14.93,14.93,0,0,0,16.79,77.583V268.226a14.93,14.93,0,0,0,14.892,15.032H49.665v45.378a14.962,14.962,0,1,0,29.924,0V283.258H97.571A15.049,15.049,0,0,0,112.6,268.226V77.583A15.049,15.049,0,0,0,97.571,62.55Z" transform="translate(219.091 24.272)"/>
    <path id="Path_5431" data-name="Path 5431" d="M105.961,67.82H88.119V22.442a15.032,15.032,0,1,0-30.064,0V67.82H40.072A15.02,15.02,0,0,0,25.18,82.853V273.5a15.02,15.02,0,0,0,14.892,15.032H58.055v45.378a15.032,15.032,0,1,0,30.064,0V288.529h17.842A15.049,15.049,0,0,0,120.994,273.5V82.853A15.05,15.05,0,0,0,105.961,67.82Z" transform="translate(328.572 93.039)"/>
  </g>
</svg>
