<svg xmlns="http://www.w3.org/2000/svg" width="459.811" height="451.698" viewBox="0 0 459.811 451.698">
  <g id="chart_1_" data-name="chart (1)" transform="translate(0 -0.282)">
    <path id="Path_5432" data-name="Path 5432" d="M82.7,62.054H64.332V15.609a15.327,15.327,0,1,0-30.654,0V62.054H15.327A15.318,15.318,0,0,0,0,77.382v195.06a15.318,15.318,0,0,0,15.327,15.327h18.35v46.445a15.327,15.327,0,1,0,30.654,0V287.769H82.7a15.318,15.318,0,0,0,15.327-15.327V77.381A15.318,15.318,0,0,0,82.7,62.054ZM67.37,257.115H30.654V92.708H67.37Z" transform="translate(0 0)"/>
    <path id="Path_5433" data-name="Path 5433" d="M91.09,67.559H72.724V21.114a15.327,15.327,0,1,0-30.654,0V67.559H23.72A15.318,15.318,0,0,0,8.393,82.886v195.06A15.318,15.318,0,0,0,23.72,293.273H42.07v46.445a15.327,15.327,0,1,0,30.654,0V293.273H91.09a15.318,15.318,0,0,0,15.327-15.327V82.886A15.318,15.318,0,0,0,91.09,67.559ZM75.763,262.619H39.047V98.213H75.763Z" transform="translate(112.203 73.586)"/>
    <path id="Path_5434" data-name="Path 5434" d="M99.483,63.915H81.132V17.47a15.327,15.327,0,1,0-30.654,0V63.915H32.112A15.318,15.318,0,0,0,16.785,79.242V274.3a15.318,15.318,0,0,0,15.327,15.327H50.478v46.43a15.327,15.327,0,0,0,30.654,0v-46.43h18.35A15.318,15.318,0,0,0,114.81,274.3V79.242A15.318,15.318,0,0,0,99.483,63.915ZM84.156,258.975H47.44V94.569H84.156Z" transform="translate(224.406 24.872)"/>
    <path id="Path_5435" data-name="Path 5435" d="M107.875,69.184H89.525V22.739a15.327,15.327,0,1,0-30.654,0V69.184H40.505A15.318,15.318,0,0,0,25.178,84.511v195.06A15.318,15.318,0,0,0,40.505,294.9H58.871v46.445a15.327,15.327,0,1,0,30.654,0V294.9h18.351A15.318,15.318,0,0,0,123.2,279.571V84.511a15.318,15.318,0,0,0-15.327-15.327ZM92.548,264.244H55.832V99.838H92.548Z" transform="translate(336.608 95.31)"/>
  </g>
</svg>
