<?xml version="1.0" encoding="iso-8859-1"?>
<!-- Generator: Adobe Illustrator 19.0.0, SVG Export Plug-In . SVG Version: 6.00 Build 0)  -->
<svg version="1.1" id="Capa_1" xmlns="http://www.w3.org/2000/svg" xmlns:xlink="http://www.w3.org/1999/xlink" x="0px" y="0px"
	 viewBox="0 0 512 512" style="enable-background:new 0 0 512 512;" xml:space="preserve">
<g>
	<g>
		<path d="M256,301.022c-8.277,0-15.001,6.724-15.001,15.001s6.724,15.001,15.001,15.001c8.277,0,15.001-6.724,15.001-15.001
			S264.277,301.022,256,301.022z"/>
	</g>
</g>
<g>
	<g>
		<path d="M346.007,211.015H159.191c-54.236,0-98.205,43.967-98.205,98.205c0,92.646,61.48,178.744,152.06,198.2
			c126.167,27.1,237.968-69.844,237.968-191.398C451.014,258.029,404.001,211.015,346.007,211.015z M271.001,358.263v78.769
			c0,8.292-6.71,15.001-15.001,15.001c-8.292,0-15.001-6.709-15.001-15.001v-78.769c-17.423-6.213-30.002-22.709-30.002-42.24
			c0-24.816,20.187-45.003,45.003-45.003s45.003,20.187,45.003,45.003C301.003,335.554,288.424,352.049,271.001,358.263z"/>
	</g>
</g>
<g>
	<g>
		<path d="M256,0c-74.705,0-135.01,60.304-135.01,135.01v52.469c12.146-3.827,24.813-6.465,38.206-6.465h21.799V135.01
			c0-41.403,33.602-75.005,75.005-75.005c41.403,0,75.005,33.602,75.005,75.005v46.003h15.001c15.856,0,30.857,3.25,45.003,8.294
			V135.01C391.01,60.376,330.558,0,256,0z"/>
	</g>
</g>
<g>
</g>
<g>
</g>
<g>
</g>
<g>
</g>
<g>
</g>
<g>
</g>
<g>
</g>
<g>
</g>
<g>
</g>
<g>
</g>
<g>
</g>
<g>
</g>
<g>
</g>
<g>
</g>
<g>
</g>
</svg>
