<svg id="Icons" height="512" viewBox="0 0 60 60" width="512" xmlns="http://www.w3.org/2000/svg"><path d="m53.188 2h-11.011a1.459 1.459 0 0 0 -1.37.957l-3.316 9.043h2.524a1.793 1.793 0 0 1 1.571 2.657l-5.142 9.343h6.546a1 1 0 0 1 .938 1.347l-6.553 17.843a.608.608 0 0 0 1.058.572l17.6-23.426a1.459 1.459 0 0 0 -1.166-2.336h-6.327a1 1 0 0 1 -.876-1.482l6.8-12.355a1.459 1.459 0 0 0 -1.276-2.163z"/><path d="m7.549 43.506 9.385-12.867 4.638-12.639h-4.032a1 1 0 0 1 -.876-1.482l6.8-12.355a1.459 1.459 0 0 0 -1.276-2.163h-11.011a1.459 1.459 0 0 0 -1.37.957l-7 19.081a1.46 1.46 0 0 0 1.371 1.962h7.811a1 1 0 0 1 .938 1.348l-6.44 17.591a.608.608 0 0 0 1.062.567z"/><path d="m40.08 30.02-1.63 4.43-15.97 21.26a.612.612 0 0 1 -1.06-.58l6.51-17.78a.994.994 0 0 0 -.93-1.35h-7.81a1.456 1.456 0 0 1 -1.37-1.96l7-19.08a1.456 1.456 0 0 1 1.37-.96h11.01a1.452 1.452 0 0 1 1.27 2.16l-6.79 12.36a.975.975 0 0 0 .01.99 1.012 1.012 0 0 0 .86.49h7.37a.414.414 0 0 1 .16.02z"/></svg>