<svg id="Capa_1" enable-background="new 0 0 512.045 512.045" height="512" viewBox="0 0 512.045 512.045" width="512" xmlns="http://www.w3.org/2000/svg"><g><path d="m101 357.022c0 85.617 69.406 155.023 155.023 155.023s155.023-69.406 155.023-155.023-69.406-155.023-155.023-155.023-155.023 69.406-155.023 155.023zm140.024-73.511v-19.504h30v19.57c21.117 3.479 37.279 21.853 37.279 43.94h-30c0-8.019-6.523-14.542-14.542-14.542h-15.846c-8.008 0-14.524 6.516-14.524 14.524 0 8.009 6.516 14.524 14.524 14.524h16.217c24.551 0 44.524 19.973 44.524 44.523 0 22.207-16.343 40.667-37.633 43.989v19.504h-30v-19.465c-21.141-3.195-37.398-21.486-37.398-43.505h30c0 7.72 6.281 14.001 14.001 14.001h16.506c8.008 0 14.524-6.516 14.524-14.524s-6.516-14.524-14.524-14.524h-16.217c-24.551 0-44.524-19.973-44.524-44.524 0-22.205 16.343-40.664 37.633-43.987z"/><path d="m286.21 174.457c14.344 2.353 28.339 6.385 41.841 12.095 17.682 7.479 33.911 17.55 48.409 30.01v-114.1h30.125v-27.213l-75.25-75.249-75.25 75.25v27.213h30.125z"/><path d="m135.585 216.562c14.498-12.46 30.727-22.531 48.409-30.01 13.501-5.711 27.497-9.742 41.841-12.095v-24h30.125v-27.213l-75.25-75.25-75.25 75.25v27.213h30.125z"/></g></svg>